<?xml version="1.0" encoding="UTF-8"?>
<svg id="b" data-name="Layer 2" xmlns="http://www.w3.org/2000/svg" viewBox="0 0 147.89 40.11">
  <g id="c" data-name="Layer 1">
    <path d="M27.41,16.62c-2.93-1.49-25.2-.47-27.02-1-1.31-.63,1.06-10.95,2.31-12.45.45-.53.95-.63,2.08-.32,1.89.53,23.19.22,25.22.19.31.33,1.24-.74,1.41-.35.66,1.14,40.7-.01,41.7-.03,1.96-.03.42.58,2.72.33,4.91-.53,15.65-.11,19.36-.75,2.97-.51,3.61-.51,6.49-.2,2.93.32,18.49-.48,20.23-1.31.43-.2.76-.15.77.08.13,0,10.99-.04,11.03.08.09.23.43.33.73.16.56-.24,12.18-1.54,12.41-.87.65,1.91-.57,10.11-1.82,12.17-1.32,2.17-9.07.07-15.17,1.54-34.19,1.04-25.74.36-34.82,1.66-.72-.68-3.38,1.07-5.06-.13-.69-.5-5.59-.51-6.66.02-1.05.45-26.07-.54-28.5.78-4.15-1.1-20.67.07-27.4.41Z" style="fill: #feef38; opacity: .7;"/>
    <path d="M30.08,26.71c-3.01-1.43-24.77.56-26.37.17-1.31-.56.45-10.98,1.6-12.54.41-.55.9-.67,2.03-.42,1.62.36,21-.67,24.8-.85.31.32,1.2-.78,1.38-.39.28.45,9.74.26,19.53-.04,9.79-.3,19.92-.65,21.51-.69,1.93-.05.41.58,2.68.33,4.84-.53,15.4-.04,19.06-.61,2.93-.46,3.56-.46,6.39-.1,2.88.37,18.21-.03,19.94-.78.43-.19.75-.12.76.11.16.01,10.8.34,10.84.49.08.23.41.34.72.19.56-.24,12.05-.98,12.24-.3.54,1.93-1.06,10.08-2.37,12.07-1.38,2.09-8.84-.37-14.85.87-32.28-.04-26.22-.27-33.98.75-.69-.69-3.3,1.02-4.93-.19-.67-.5-5.44-.56-6.49-.04-.91.39-25.31-.52-27.79.91-4.47-1.14-22.51.72-26.7,1.07Z" style="fill: #feef38; opacity: .7;"/>
    <path d="M34.51,40.11c-2.39-1.23-23.64-.99-26.19-2.02-.61-.37-.09-3.07.72-5.86,2.1-7.19,2.8-7.15,4.47-6.52,1.09.41,11.15,1.22,23.37.81.29.33,1.15-.75,1.31-.36.25.47,9.25.43,18.65-.05,9.4-.48,19.2-1.16,20.73-1.24,1.86-.09.41.57,2.6.25,4.66-.68,14.88-.52,18.39-1.22,2.82-.56,3.42-.58,6.17-.32,2.8.27,17.59-.72,19.23-1.54.41-.2.72-.15.74.08.16,0,10.45-.1,10.5.04.09.23.41.33.7.16.53-.26,11.59-1.51,11.81-.84.61,1.91-.54,10.11-1.72,12.16-1.24,2.16-8.58.03-14.35,1.52-31.29,1.22-25.42.76-32.9,2.05-.69-.67-3.16,1.13-4.78-.02-.67-.48-5.28-.36-6.3.17-.86.45-24.53.24-26.93,1.69-3.9-.91-18.53.7-26.23,1.07Z" style="fill: #feef38; opacity: .7;"/>
  </g>
</svg>