<?xml version="1.0" encoding="UTF-8"?>
<svg id="b" data-name="Layer 2" xmlns="http://www.w3.org/2000/svg" viewBox="0 0 243.35 69.64">
  <g id="c" data-name="Layer 1">
    <g>
      <path d="M46.89,18.01c-4.92-1.34-37.89,1.92-40.01,1.62-1.99-.49.57-11.02,2.32-12.65.62-.58,1.36-.73,3.08-.54,1.81.2,20.76-1.08,37.7-2.18,0,0,55.91-2.3,64.51-2.58,2.94-.1.62.58,4.08.28,7.36-.64,23.42-.31,28.99-.91,4.47-.48,5.43-.51,9.72-.15,3.73.31,27.65-.05,30.35-.79.66-.18,1.15-.12,1.15.11,0,0,11.73.28,15.76.5.46.03.72.05.73.08.12.23.62.34,1.09.2.85-.27,18.34-.8,18.62-.12.79,1.95-1.76,10.05-3.79,12.03-2.12,2.06-13.28-.5-22.57.67-48.15-.32-42.43-.06-51.62.79-1.05-.69-5.04,1.05-7.48-.13-1.02-.49-8.26-.47-9.86.05-1.17.38-38.11,0-42.2,1.6-7.56-1.06-36.79,1.84-40.53,2.14Z" style="fill: #feef38; opacity: .7;"/>
      <path d="M53.95,27.8c-4.81-1.46-40.03.17-42.59-.27-2.09-.59,1.25-10.98,3.19-12.51.68-.55,1.47-.63,3.28-.38,2.87.47,39.98-.46,39.98-.46.49.32,1.96-.76,2.23-.37.85.91,61-.33,66.13-.38,3.11-.03.65.59,4.31.34,7.8-.5,24.8-.02,30.71-.59,4.73-.47,5.75-.49,10.29-.11,4.64.34,29.31-.15,32.13-.88.69-.2,1.22-.13,1.22.1,0,.05,17.39.22,17.47.4.13.23.66.34,1.15.18.91-.24,19.42-1.11,19.71-.44.91,1.92-1.64,10.1-3.79,12.09-2.2,2.13-14.28-.26-23.99,1.02l-45.21.13-9.69.8c-1.11-.69-5.38,1.05-7.96-.19-1.09-.49-8.79-.56-10.49-.04-1.48.4-40.87-.61-44.91.78-7.19-1.16-36.39.5-43.16.78Z" style="fill: #feef38; opacity: .7;"/>
      <path d="M50.69,37.27c-4.75-1.59-39.85-.96-42.39-1.47-2.06-.65,1.55-10.94,3.53-12.42.7-.53,1.48-.59,3.28-.29,2.84.55,39.81.67,39.81.67.48.34,1.97-.71,2.23-.31.83.94,60.73,1.38,65.84,1.47,3.1.05.63.61,4.28.46,7.78-.28,24.69.68,30.58.27,4.72-.34,5.74-.32,10.25.18,4.61.47,29.18.67,32.01.03.69-.18,1.21-.09,1.21.14,0,.05,17.3.7,17.37.89.13.23.65.36,1.14.21.91-.21,19.36-.57,19.64.12.85,1.95-1.91,10.05-4.11,11.98-2.25,2.06-14.21-.66-23.91.35l-45.01-1.14-9.67.52c-1.08-.72-5.39.9-7.92-.41-1.07-.52-8.73-.81-10.44-.34-1.48.36-40.67-1.76-44.73-.48-7.13-1.37-36.24-.52-42.99-.43Z" style="fill: #feef38; opacity: .7;"/>
      <path d="M42.54,46.61c-5.13-1.47-39.44,1.05-41.62.71-2.06-.53.88-11,2.74-12.6.66-.56,1.43-.7,3.21-.47,1.77.22,19.24-.52,39.23-1.31,0,0,51.59-.86,67.11-.96,3.05-.02.63.59,4.23.39,7.67-.44,24.35.33,30.15-.12,4.65-.36,5.65-.36,10.1.12,3.78.4,28.73.75,31.56.08.69-.16,1.2-.08,1.19.15.46.04,2.2.13,2.66.16.18,0,14.39.75,14.45.91.12.24.63.36,1.12.23.89-.24,19.09-.24,19.35.45.77,1.97-2.12,9.99-4.29,11.91-2.26,1.99-13.76-.91-23.47-.02,0,0-2.76-.1-6.9-.24-41.51-1.45-38.4-.98-46.75-.46-1.07-.72-5.26.9-7.77-.34-1.05-.52-8.57-.7-10.25-.22-1.2.34-39.71-1.01-43.89.49-7.96-1.27-38.97.98-42.16,1.15Z" style="fill: #feef38; opacity: .7;"/>
      <path d="M41.96,55.12c-4.65-1.54-38.86-.46-41.35-.94-2.02-.62,1.39-10.96,3.29-12.46.67-.54,1.44-.61,3.19-.33,2.77.52,38.82.17,38.82.17.47.33,1.91-.73,2.17-.34.82.93,59.22.63,64.2.66,3.02.02.62.6,4.18.41,7.58-.38,24.08.37,29.82-.11,4.6-.4,5.59-.39,9.99.05,4.5.41,28.45.31,31.2-.37.67-.19,1.18-.11,1.18.12,0,.05,16.87.49,16.95.67.13.23.64.35,1.12.2.88-.23,18.87-.81,19.15-.13.85,1.94-1.75,10.07-3.86,12.03-2.17,2.09-13.86-.49-23.31.65l-43.89-.59-9.42.64c-1.06-.71-5.24.96-7.72-.31-1.05-.51-8.52-.7-10.18-.21-1.44.38-39.67-1.25-43.61.07-6.96-1.28-35.34-.07-41.91.1Z" style="fill: #feef38; opacity: .7;"/>
      <path d="M51.62,66.65c-4.84-1.47-36.05,1.26-38.01.97-1.89-.51.6-11.01,2.28-12.62.59-.57,1.3-.71,2.94-.5,1.39.18,13.24-.46,35.97-1.53.45.32,1.75-.79,2-.4.26.3,59.15-.24,59.55-.23,2.8.01.57.6,3.87.44,7.04-.35,22.32.67,27.65.34,4.28-.26,5.19-.26,9.26.3,3.13.44,26.32,1.39,28.93.81.64-.14,1.1-.05,1.09.18.21.03,15.6,1.35,15.66,1.55.1.24.57.38,1.02.26.83-.22,17.51.36,17.72,1.05.62,1.99-2.38,9.91-4.44,11.76-1.08.96-4.24.63-8.23.12-12.13-1.55-6.96-.42-19.5-1.27-36-2.44-35.97-1.82-42.69-1.5-.96-.74-4.83.81-7.09-.47-.95-.54-7.81-.81-9.36-.38-1.11.31-36.26-1.45-40.1.05-7.1-1.27-31.64.6-38.52,1.07Z" style="fill: #feef38; opacity: .7;"/>
    </g>
  </g>
</svg>