<?xml version="1.0" encoding="UTF-8"?>
<svg id="b" data-name="Layer 2" xmlns="http://www.w3.org/2000/svg" viewBox="0 0 142.96 53.36">
  <g id="c" data-name="Layer 1">
    <g>
      <path d="M47.36,15.06c-1.97-1.48-16.28-.01-17.33-.46-.85-.6.39-10.97,1.16-12.5.27-.55.59-.63,1.33-.37,1.17.49,16.26-.28,16.26-.28.2.32.79-.76.9-.36.36.92,24.81-.06,26.89-.09,1.26-.02.27.6,1.76.36,3.17-.46,10.09.09,12.48-.46,1.92-.45,2.33-.46,4.18-.06,1.89.36,11.92-.02,13.06-.74.28-.2.49-.12.5.11,0,.05,7.07.29,7.11.47.06.23.27.34.47.19.37-.24,7.89-1.03,8.01-.35.39,1.93-.56,10.09-1.41,12.08-.87,2.12-5.81-.32-9.75.92l-18.39-.07-3.93.75c-.46-.7-2.18,1.03-3.24-.22-.45-.5-3.58-.6-4.27-.09-.6.4-16.63-.79-18.26.58-2.94-1.2-14.8.34-17.55.59Z" style="fill: #feef38; opacity: .7;"/>
      <path d="M98.32,4.43c2.77,1.07,21.09-3.25,22.51-3.02,1.19.42,1.08,10.94.3,12.6-.27.59-.68.74-1.67.63-1.59-.25-21.02,3.54-21.02,3.54-.31-.28-.91.91-1.12.54-.6-.84-32.12,5.03-34.82,5.48-1.64.27-.44-.54-2.33,0-4.04,1.09-13.08,1.93-16.1,2.95-2.42.83-2.96.92-5.41.9-2.5.02-15.43,2.41-16.81,3.34-.33.25-.62.22-.66,0,0-.05-9.2,1.13-9.27.96-.11-.22-.4-.29-.64-.09-.44.31-10.07,2.6-10.33,1.95-.78-1.83-.74-10.1.08-12.23.82-2.27,7.57-.84,12.49-2.86l23.83-3.61,4.99-1.53c.69.6,2.67-1.45,4.23-.43.65.4,4.72-.12,5.54-.77.72-.51,21.65-2.55,23.56-4.23,3.98.59,19.12-3.3,22.64-4.1Z" style="fill: #feef38; opacity: .7;"/>
      <path d="M26.83,33.92c-2.95-1.34-24.6.84-26.36.41-1.31-.56.44-10.99,1.58-12.55.41-.56.89-.68,2.01-.43,1.85.42,22.3-.96,24.59-1.12.32.31,1.17-.8,1.36-.42.28.45,9.67.06,19.38-.51,9.71-.58,19.74-1.33,21.32-1.42,1.91-.12.43.57,2.67.23,4.78-.72,15.28-.69,18.89-1.43,2.89-.6,3.51-.62,6.34-.4,2.88.23,18.08-.94,19.76-1.78.42-.21.74-.16.76.07.16,0,10.74-.25,10.8-.09.1.23.43.32.72.15.54-.27,11.91-1.64,12.14-.98.65,1.9-.48,10.12-1.68,12.18-1.26,2.17-8.81.13-14.73,1.68-32.16,1.61-26.13,1.09-33.8,2.47-.72-.66-3.25,1.17-4.92.04-.69-.47-5.44-.31-6.48.24-.88.47-25.26.48-27.69,1.94-4.5-.98-22.47,1.32-26.65,1.72Z" style="fill: #feef38; opacity: .7;"/>
      <path d="M117.98,18.64c3.3,1,22.15-4.85,23.32-4.77,1.29.3,2.04,10.79,1.32,12.54-.25.62-.67.83-1.74.8-1.08-.03-16.85,3.97-22.34,5.19-.34-.27-.96.95-1.19.59-.33-.41-17.3,2.72-17.82,2.81-3.65.64-9.88,1.77-19.59,3.17-1.76.25-.44-.53-2.49-.06-4.37,1.01-14.1,1.47-17.39,2.33-2.65.69-3.22.76-5.84.61-2.28-.13-16.63,1.35-18.2,2.16-.38.22-.68.17-.7-.06-.18,0-9.9.35-9.95.18-.09-.23-.4-.32-.67-.15-.5.28-10.95,1.67-11.16,1-.61-1.9.34-10.12,1.41-12.18,1.13-2.17,8.07-.13,13.45-1.72,28.19-1.82,25.01-1.77,30.73-3.11.69.64,2.88-1.28,4.47-.22.65.44,4.96.07,5.87-.52.35-.23,7.26-.84,7.69-.89,2.07-.22,15.61-1.59,17.18-2.95,4.41.59,19.37-3.51,23.65-4.75Z" style="fill: #feef38; opacity: .7;"/>
      <path d="M45.88,53.36c-2.02-1.3-17.21.18-18.47-.35-.89-.61.69-10.97,1.49-12.48.29-.54.62-.64,1.37-.35,1.51.58,14.48-.3,16.68-.48.22.32.78-.78.92-.39.56,1.27,26.69-1.79,27.7-1.9,1.3-.14.33.56,1.85.19,3.22-.78,10.43-.92,12.84-1.75,1.93-.66,2.36-.7,4.31-.54,1.99.16,12.33-1.43,13.4-2.33.27-.23.49-.19.53.04.15,0,7.36-.59,7.4-.46.09.22.33.3.51.12.35-.28,8.02-2.08,8.24-1.43.64,1.86.72,10.08.1,12.17-.65,2.21-6.08.47-10.02,2.23-23.41,2.81-17.52,1.74-23.22,3.43-.55-.64-2.15,1.25-3.42.14-.51-.45-3.8-.21-4.48.36-.29.24-4.68.45-9.19.77-4.51.32-9.16.69-9.97,1.44-2.73-.85-12.82.81-18.56,1.55Z" style="fill: #feef38; opacity: .7;"/>
    </g>
  </g>
</svg>